HIERARCHY
ROOT Hips
{
  OFFSET 0.0 0.0 0.0
  CHANNELS 6 XPOSITION YPOSITION ZPOSITION ZROTATION XROTATION YROTATION 
  JOINT LeftUpLeg
  {
    OFFSET 0.089458 -0.0866707 0.00101652
    CHANNELS 3 ZROTATION XROTATION YROTATION 
    JOINT LeftLeg
    {
      OFFSET 0.0 -0.444227 0.013727
      CHANNELS 3 ZROTATION XROTATION YROTATION 
      JOINT LeftFoot
      {
        OFFSET -0.00253549 -0.420924 -0.0146059
        CHANNELS 3 ZROTATION XROTATION YROTATION 
        End Site
        {
          OFFSET -0.0004 -0.0441509 0.084991
        }
      }
    }
  }
  JOINT Spine
  {
    OFFSET 0.0 0.118905 0.0
    CHANNELS 3 ZROTATION XROTATION YROTATION 
    JOINT Spine1
    {
      OFFSET 0.0 0.256574 0.00127663
      CHANNELS 3 ZROTATION XROTATION YROTATION 
      End Site
      {
        OFFSET -0.0029 0.2150836 0.02525291
      }
      JOINT RightArm
      {
        OFFSET -0.162727 -0.05365632 0.00102123
        CHANNELS 3 ZROTATION XROTATION YROTATION 
        JOINT RightForeArm
        {
          OFFSET -0.26364 0.00099144 -0.0142434
          CHANNELS 3 ZROTATION XROTATION YROTATION 
          End Site
          {
            OFFSET -0.220324 0.00085362 0.0102216
          }
        }
      }
      JOINT LeftArm
      {
        OFFSET 0.162727 -0.0536563199 0.00102123
        CHANNELS 3 ZROTATION XROTATION YROTATION 
        JOINT LeftForeArm
        {
          OFFSET 0.262597 0.00099144 -0.0142434
          CHANNELS 3 ZROTATION XROTATION YROTATION 
          End Site
          {
            OFFSET 0.220902 0.00085362 0.0102216
          }
        }
      }
    }
  }
  JOINT RightUpLeg
  {
    OFFSET -0.089458 -0.0866707 0.00101652
    CHANNELS 3 ZROTATION XROTATION YROTATION 
    JOINT RightLeg
    {
      OFFSET 0.0 -0.444227 0.013727
      CHANNELS 3 ZROTATION XROTATION YROTATION 
      JOINT RightFoot
      {
        OFFSET 0.00253549 -0.420924 -0.0146059
        CHANNELS 3 ZROTATION XROTATION YROTATION 
        End Site
        {
          OFFSET 0.0004 -0.0441509 0.084991
        }
      }
    }
  }
}
MOTION
Frames: 11
Frame Time: 0.033333
1.78798 0.98980061347 0.0836677 -3.23300003419 0.568657004303 -92.379701883 -1.76744997251 2.67081997021 1.69876996581 0.143959003342 8.54788014721 19.0232004046 -11.1750082511 -35.2431716455 -22.1366089491 1.43303996205 5.25050984896 0.836221981075 -1.67296999344 -1.21618999364 1.25000999548 78.5850488541 -11.9173063799 5.54667496222 6.75628993829 40.7445987389 10.074799672 -73.3047798709 3.50311075053 1.69757948518 -2.23560992125 27.8197002914 -19.6184992021 0.106691997127 1.78883999056 -3.40007008982 0.0441629993223 9.74554015779 -11.1674002741 11.7469384101 -35.2287633615 20.8901199161 
1.78815 0.98980061347 0.0838016 -3.24483995367 0.593959973692 -92.3380992008 -1.74495004873 2.64196007309 1.71297996094 0.147674999777 8.60637986367 18.9671006459 -11.1719961376 -35.2613399487 -22.1388287605 1.4955000143 5.29758991602 0.822589990709 -1.73539995016 -1.21922003631 1.24678998817 78.6483578775 -11.8140492876 5.53260093055 6.69634990568 40.3136001419 10.2349001599 -73.3738330834 4.17840749834 1.40434793817 -1.96987991748 27.1303002701 -20.1711007795 0.120198002519 1.81625999843 -3.39037997238 0.0613736986537 9.7022999377 -11.1949003233 11.7257042057 -35.2043898314 20.854894923 
1.78835 0.98980061347 0.0840564 -3.2891399203 0.609945978083 -92.2825970836 -1.74985999425 2.65067005838 1.70549001818 0.166101996384 8.65387016897 18.9178003404 -11.163251788 -35.2755057611 -22.1358422603 1.57508004242 5.40470990721 0.789176011598 -1.82857995214 -1.25769000959 1.23051001884 78.7556191682 -11.6621800314 5.5194075664 6.61684010044 39.7788987827 10.4428000192 -73.4956563375 5.09536124819 0.895720719431 -1.4517700483 26.293499644 -21.1432996607 0.123658000262 1.87045989737 -3.38762996747 0.0619555987544 9.67339969978 -11.230899689 11.727023286 -35.1846061885 20.8266418455 
1.78857 0.98980061347 0.0844159 -3.32807989597 0.598387003491 -92.2912987446 -1.79615000052 2.67616992932 1.6717199621 0.178324993429 8.65760030603 18.9632996456 -11.1453626687 -35.2728897986 -22.1318687978 1.66446000462 5.59404018968 0.751898973542 -1.95432010623 -1.43711000774 1.21684003555 78.842949967 -11.4776291738 5.50591965033 6.54790983133 39.5913998447 10.5798998451 -73.5848039665 5.86076249187 0.538184488847 -0.895118008597 25.6938995349 -22.2211000966 0.101408999216 1.87460005922 -3.38704000988 0.0257423993474 9.71900999551 -11.2275998539 11.7783094689 -35.1846369243 20.8423154221 
1.78892 0.98980061347 0.0848835 -3.32522999954 0.590502990837 -92.3900974309 -1.83646006945 2.64340999418 1.65066995941 0.165439001127 8.67889000568 19.0896000886 -11.1229084219 -35.2757516479 -22.1330828639 1.77270004011 5.78012997428 0.752438985374 -2.06528997623 -1.62622001661 1.23822994687 78.8804272149 -11.3473561219 5.52523926729 6.49219982026 39.6588991892 10.6482999208 -73.6255597053 6.39972076644 0.277505383294 -0.505076000619 25.3742996157 -23.1227994728 0.074067098298 1.7972699381 -3.37206994276 -0.0160889007912 9.80234001093 -11.1598998726 11.834936006 -35.1800914334 20.8718747733 
1.78929 0.98980061347 0.0854003 -3.30764994639 0.612256983261 -92.4922019288 -1.84398992613 2.58134000977 1.65462997502 0.14855299925 8.72707016008 19.1888000486 -11.0973225332 -35.2917069698 -22.1309757505 1.86073989785 5.85182988509 0.7885429918 -2.0744900276 -1.61091996598 1.27824002109 78.8699428746 -11.3572744104 5.59854640699 6.49148008907 39.642100339 10.6492996897 -73.6500732542 6.72171722826 -0.192336939749 -0.353549000934 25.3320992919 -23.5209995014 0.0630131975185 1.72848000804 -3.35723989453 -0.0261354003615 9.83007997047 -11.0730002296 11.8512302761 -35.1495434124 20.8718935563 
1.78942 0.98980061347 0.085883 -3.32325991685 0.644030009424 -92.4983969104 -1.84330007702 2.59394000124 1.66141000499 0.148571995714 8.72241965503 19.183400784 -11.0591614126 -35.2960680456 -22.1177456741 1.897860055 5.83979978753 0.790417985449 -2.01244992526 -1.46219996061 1.27201003479 78.8311200793 -11.4143081975 5.67156369054 6.60504991327 39.4452986833 10.5441002623 -73.6738696333 6.85036725637 -0.835173493677 -0.367750004755 25.4826998404 -23.3371000731 0.0576252988413 1.76710003204 -3.37384002898 -0.00861751010382 9.76477994691 -11.0394998593 11.8463629125 -35.103927994 20.852186753 
1.78924 0.98980061347 0.0863029 -3.36321993859 0.656401989971 -92.4384005287 -1.85226000455 2.68542995829 1.67258995744 0.139438005081 8.64360012578 19.1112005619 -11.0036558803 -35.2839000635 -22.1033459278 1.91638993133 5.84068984656 0.717343018819 -2.0068700876 -1.4120599688 1.19863000417 78.7919011331 -11.3757961759 5.69723709097 6.81279993527 39.2758997466 10.3368996437 -73.6431474424 6.80698573674 -1.27780438309 -0.469255980651 25.7300995375 -22.9106999009 0.0425033000395 1.87394009219 -3.40850003736 -0.000365098994019 9.67147017134 -11.0676001113 11.8682775745 -35.0696609349 20.8537576965 
1.78902 0.98980061347 0.0866887 -3.37655993837 0.66044300736 -92.4193989425 -1.84933006684 2.75760990333 1.70951001139 0.0922193999045 8.55430991654 19.0621000395 -10.9392121917 -35.272903459 -22.098766286 1.95726989417 5.85029992272 0.627120008504 -2.06727009076 -1.47195998076 1.11796995238 78.7664859992 -11.3365396636 5.6947577323 7.00014988977 39.3306983543 10.1129001748 -73.5155526785 7.01720743345 -1.39567776007 -0.629582985391 25.6979003182 -22.6540999391 0.033702101036 1.94173996499 -3.41142997507 -0.022291299527 9.59824029815 -11.0931996603 11.9113385021 -35.03969348 20.8668528767 
1.78896 0.98979061347 0.0870602 -3.35017000841 0.667852001702 -92.4702975122 -1.83813005071 2.74793003117 1.75221000621 0.0330595996816 8.52947961758 19.0771008424 -10.8893876692 -35.2830087239 -22.1014778711 1.97217998369 5.82124984752 0.599717983245 -2.04852997266 -1.49049999566 1.08622995659 78.7346778082 -11.5006332509 5.69491994929 7.07214008362 39.6182015071 9.95561030968 -73.3543260632 7.692375048 -1.40878083766 -0.84021700141 25.2564003053 -22.601399907 0.0300306008827 1.91502005151 -3.38272994707 -0.0553992007856 9.5895497362 -11.0559998887 11.9399262589 -35.0243699506 20.8529585644 
1.78898 0.98977061347 0.0873977 -3.32627992768 0.659946004376 -92.5281970258 -1.85965005579 2.71787997359 1.75382000986 0.00416716994952 8.5398102787 19.135000356 -10.861035554 -35.3002071402 -22.1012917484 1.88556998336 5.80511011051 0.629494993344 -1.87667003343 -1.47269998907 1.08565003084 78.6670930864 -11.8075725607 5.67005123052 7.05559010838 40.0171016301 9.86205037843 -73.2637987359 8.34137962294 -1.44444957961 -1.06843998184 24.8440003134 -22.4972992863 -0.00542757997522 1.84755998063 -3.38890998761 -0.0668823996317 9.6537697361 -10.9575999147 11.9499495615 -35.0445121784 20.8224583546 
